<?xml version="1.0" standalone="no"?>
<!DOCTYPE svg PUBLIC "-//W3C//DTD SVG 20010904//EN"
 "http://www.w3.org/TR/2001/REC-SVG-20010904/DTD/svg10.dtd">
<svg version="1.0" xmlns="http://www.w3.org/2000/svg"
 width="300.000000pt" height="300.000000pt" viewBox="0 0 300.000000 300.000000"
 preserveAspectRatio="xMidYMid meet">
<metadata>
Created by potrace 1.11, written by Peter Selinger 2001-2013
</metadata>
<g transform="translate(0.000000,300.000000) scale(0.100000,-0.100000)"
fill="#000000" stroke="none">
<path d="M335 2993 c-16 -3 -34 -9 -39 -14 -6 -5 -18 -9 -27 -9 -10 0 -31 -11
-47 -25 -17 -14 -34 -25 -39 -25 -11 0 -103 -93 -103 -104 0 -4 -11 -21 -25
-38 -14 -16 -25 -37 -25 -47 0 -9 -6 -23 -12 -29 -18 -18 -19 -2376 -2 -2413
61 -132 88 -168 174 -230 89 -64 -13 -60 1304 -57 940 2 1198 6 1208 15 6 7
20 13 29 13 10 0 31 11 47 25 17 14 34 25 39 25 11 0 103 93 103 104 0 4 11
21 25 38 14 16 25 37 25 47 0 9 6 23 13 29 17 18 18 2376 1 2413 -61 132 -88
168 -174 230 -88 64 9 59 -1277 58 -642 -1 -1181 -4 -1198 -6z m1949 -737 c55
-23 81 -70 81 -148 0 -60 -3 -70 -30 -98 -111 -117 -305 -53 -305 100 0 92 71
160 167 160 30 0 69 -6 87 -14z m497 -9 c19 -12 45 -44 58 -71 22 -45 23 -52
12 -95 -21 -79 -86 -131 -164 -131 -121 0 -198 95 -168 207 11 42 51 86 91
102 48 19 134 13 171 -12z m-1698 -14 c2 -5 -2 -39 -9 -78 -7 -38 -13 -89 -13
-112 -2 -76 5 -73 -166 -73 l-153 0 -6 -37 c-3 -21 -8 -63 -11 -93 -3 -30 -10
-86 -15 -125 -5 -38 -17 -128 -25 -200 -15 -120 -30 -244 -56 -450 -5 -44 -12
-97 -15 -117 l-6 -38 -149 0 c-98 0 -149 4 -149 11 0 5 4 40 10 77 5 37 16
121 25 187 41 333 57 460 70 570 8 66 18 141 21 168 l7 47 -158 0 -157 0 5 33
c3 17 11 78 18 135 l13 102 457 0 c252 0 460 -3 462 -7z m531 -428 c157 -75
224 -226 197 -448 -17 -147 -55 -231 -145 -325 -170 -178 -499 -189 -649 -23
-67 74 -97 159 -97 278 0 70 19 178 42 238 51 130 163 243 288 287 71 26 79
27 195 24 97 -2 117 -6 169 -31z m686 -12 c0 -14 -4 -54 -9 -87 -10 -61 -24
-173 -41 -316 -5 -41 -16 -131 -25 -200 -8 -69 -22 -177 -29 -240 -18 -143
-30 -195 -60 -262 -27 -61 -73 -110 -130 -141 -78 -41 -340 -20 -323 26 2 7
17 54 33 105 27 91 29 93 53 86 38 -11 78 -9 96 6 26 22 42 105 75 405 5 50
14 122 20 160 5 39 16 124 24 190 8 66 20 159 27 208 l11 87 139 0 139 0 0
-27z m480 -1 c0 -16 -16 -154 -36 -308 -19 -153 -42 -333 -50 -399 -8 -66 -18
-155 -23 -197 -25 -202 -94 -314 -217 -353 -68 -21 -186 -16 -249 10 -22 9
-41 18 -42 19 -2 1 11 40 27 87 16 46 30 92 30 102 0 20 4 20 48 8 43 -13 77
0 96 37 17 33 20 53 80 542 23 189 34 275 47 383 l12 97 139 0 138 0 0 -28z"/>
<path d="M1344 1580 c-55 -22 -104 -94 -129 -191 -20 -73 -19 -109 5 -163 57
-134 204 -106 285 54 11 22 19 67 22 121 6 99 -9 144 -56 172 -31 18 -92 21
-127 7z"/>
</g>
</svg>
